<svg fill="none" height="24" viewBox="0 0 24 24" width="24" xmlns="http://www.w3.org/2000/svg"><path d="m20.9997 20.0027c0 .5531-.45 1.0007-1 1.0007-1.92 0-6.0799 0-7.9999 0-.55 0-1-.4476-1-1.0007 0-1.9158 0-6.0835 0-7.9993 0-.5531.45-1.0007 1-1.0007h7.9999c.55 0 1 .4476 1 1.0007zm-8.9999-7.9993v7.9993h7.9999v-7.9993z" fill="#000"/><path clip-rule="evenodd" d="m12.9997 9.49828c0 .276-.22.5-.5.5s-.5-.224-.5-.5c0-1.441 0-5.49999 0-5.49999h-7.99995v8.00001h5.5c.13 0 .25998.053.34998.146.1.094.15002.221.15002.354 0 .276-.22.5-.5.5-1.15 0-3.98 0-5.5 0-.54999 0-.99999-.448-.99999-1 0-1.916 0-6.08401 0-8.00001 0-.552.45-1 .99999-1h7.99995c.55 0 1 .448 1 1z" fill="#000" fill-rule="evenodd"/><g stroke="#000" stroke-linejoin="round" stroke-miterlimit="5"><path d="m5.49878 5.49854h5.00002-2.00002" stroke-linecap="round"/><path d="m9.49976 5.49854v.99999" stroke-linecap="square"/><path d="m9.50006 7.0022c0 1.93375-1.568 3.5-3.5 3.5" stroke-linecap="round" stroke-width="1.14"/><path d="m13.9998 18.4983 2-5 2 5" stroke-linecap="round"/><path d="m14.3964 17.4983h3.2" stroke-linecap="round" stroke-width=".97"/><path d="m5.49976 10.4983h.5" stroke-linecap="round"/></g><path d="m14.5 6c-.2761 0-.5.22386-.5.5s.2239.5.5.5zm2.5 3.5c0 .27614.2239.5.5.5s.5-.22386.5-.5zm-2.5-2.5c1.3807 0 2.5 1.11929 2.5 2.5h1c0-1.933-1.567-3.5-3.5-3.5z" fill="#000"/><path d="m9.5 18c.27614 0 .5-.2239.5-.5s-.22386-.5-.5-.5zm-2.5-3.5c0-.2761-.22386-.5-.5-.5s-.5.2239-.5.5zm2.5 2.5c-1.38071 0-2.5-1.1193-2.5-2.5h-1c0 1.933 1.567 3.5 3.5 3.5z" fill="#000"/><path d="m6 7.5c0-.27614.22386-.5.5-.5h2.75c.27614 0 .5.22386.5.5 0 .27614-.22386.5-.5.5h-2.75c-.27614 0-.5-.22386-.5-.5z" fill="#000"/><path clip-rule="evenodd" d="m12 4h-8v8h8v8h8v-8h-8z" fill="#000" fill-opacity=".1" fill-rule="evenodd"/></svg>